<?xml version="1.0" standalone="no"?>
<!DOCTYPE svg PUBLIC "-//W3C//DTD SVG 20010904//EN"
 "http://www.w3.org/TR/2001/REC-SVG-20010904/DTD/svg10.dtd">
<svg version="1.0" xmlns="http://www.w3.org/2000/svg"
 width="184.000000pt" height="184.000000pt" viewBox="0 0 184.000000 184.000000"
 preserveAspectRatio="xMidYMid meet">
<metadata>
Created by potrace 1.16, written by Peter Selinger 2001-2019
</metadata>
<g transform="translate(0.000000,184.000000) scale(0.100000,-0.100000)"
fill="#000000" stroke="none">
<path d="M860 1473 c-14 -3 -27 -8 -30 -12 -5 -7 -347 -177 -407 -202 -18 -8
-33 -17 -33 -21 0 -3 -14 -9 -30 -13 -17 -4 -30 -11 -30 -16 0 -5 -5 -9 -12
-9 -15 0 -202 -93 -206 -102 -2 -5 -9 -8 -16 -8 -7 0 -23 -11 -36 -25 -12 -13
-27 -22 -33 -18 -6 3 -7 1 -3 -6 4 -6 2 -19 -6 -28 -8 -10 -13 -42 -13 -88 1
-71 1 -72 45 -118 24 -26 49 -47 56 -47 7 0 14 -3 16 -8 4 -10 190 -102 206
-102 6 0 12 -4 12 -10 0 -5 6 -10 13 -10 7 0 125 -57 263 -126 213 -108 256
-126 299 -128 45 -1 74 11 305 127 140 70 261 127 268 127 6 0 12 4 12 9 0 5
14 12 30 16 17 4 30 11 30 16 0 5 5 9 10 9 33 0 183 87 221 127 43 46 43 47
44 119 0 66 -3 75 -31 111 -17 21 -40 42 -52 48 -12 5 -22 13 -22 17 0 5 -5 8
-11 8 -14 0 -141 62 -149 72 -3 3 -18 10 -33 13 -15 4 -27 11 -27 15 0 5 -13
11 -30 15 -16 4 -30 10 -30 13 0 4 -15 13 -32 21 -18 7 -102 47 -186 87 -84
41 -156 74 -161 74 -5 0 -11 3 -13 8 -13 30 -135 58 -198 45z m494 -244 c285
-142 395 -202 410 -222 15 -20 21 -44 21 -82 0 -46 -4 -58 -29 -84 -20 -20
-164 -98 -413 -221 -304 -151 -391 -190 -423 -190 -32 0 -119 39 -423 190
-249 123 -393 201 -413 221 -25 26 -29 38 -29 84 0 38 6 61 21 82 15 20 125
80 405 220 211 105 391 194 399 197 43 14 109 -13 474 -195z"/>
<path d="M880 1396 c-19 -7 -200 -95 -402 -195 -268 -133 -371 -189 -384 -209
-17 -26 -23 -100 -9 -122 7 -12 112 -80 123 -80 4 0 21 -7 37 -16 17 -9 168
-86 337 -170 199 -100 318 -154 338 -154 38 0 788 370 820 405 27 29 31 102 7
138 -11 17 -137 84 -399 214 -211 105 -394 193 -408 196 -14 3 -41 0 -60 -7z
m-130 -421 c0 -13 26 -15 170 -15 146 0 170 2 170 15 0 13 24 15 175 13 233
-4 240 -22 10 -26 -93 -1 -177 -5 -185 -8 -20 -7 -330 -7 -338 0 -3 3 -86 6
-184 6 -163 0 -191 4 -171 23 3 4 84 7 180 7 147 0 173 -2 173 -15z m335 -75
c-4 -6 -72 -10 -171 -10 -103 0 -164 -4 -164 -10 0 -6 -84 -10 -231 -10 -151
0 -228 3 -224 10 4 6 92 10 231 10 143 0 224 4 224 10 0 6 64 10 171 10 111 0
168 -3 164 -10z"/>
</g>
</svg>
